<?xml version="1.0" encoding="UTF-8" standalone="no"?>
<svg width="790px" height="128px" viewBox="0 0 790 128" version="1.1" xmlns="http://www.w3.org/2000/svg" xmlns:xlink="http://www.w3.org/1999/xlink">
    <!-- Generator: Sketch 3.8.3 (29802) - http://www.bohemiancoding.com/sketch -->
    <title>256</title>
    <desc>Created with Sketch.</desc>
    <defs></defs>
    <g id="logo" stroke="none" stroke-width="1" fill="none" fill-rule="evenodd">
        <g id="256">
            <g id="Group-Copy">
                <path d="M41.89988,119.995305 C18.9534239,119.995305 0.352046528,117.422668 0.352046528,114.249665 C0.352046528,111.076028 18.9534239,108.504025 41.89988,108.504025 C64.8463361,108.504025 83.4477134,111.076028 83.4477134,114.249665 C83.4477134,117.422668 64.8463361,119.995305 41.89988,119.995305" id="Fill-3" fill="#E3E2D0"></path>
                <path d="M38.2925131,75.9333549 C38.2925131,75.9333549 37.9081164,76.1362242 37.1450317,76.387909 C36.3800441,76.6478353 35.2395403,76.9369241 33.7425496,77.1036573 C32.2442903,77.2754623 30.3965218,77.2951153 28.255064,76.9901773 C27.1894097,76.8278818 26.0628608,76.5673215 24.8646339,76.2287834 C23.7012946,75.836358 22.4485164,75.3932153 21.20335,74.771928 C18.7117487,73.5452025 16.1427605,71.7555147 13.8471634,69.393355 C11.5483947,67.0407048 9.56424782,64.1358696 8.04695901,60.9590627 C7.29085187,59.3665385 6.66477994,57.7150554 6.12878117,56.0223645 C5.91755325,55.213423 5.70569102,54.4000438 5.49256015,53.5822269 C5.44815788,53.4452901 5.39868107,53.1771222 5.3504729,52.8975429 L5.21155724,52.0892354 L4.97559092,50.4567713 C4.4694051,46.471023 4.820183,42.2063294 5.9892312,38.2554493 C7.1303694,34.3013993 9.00604793,30.7797146 11.0688503,27.9319364 C13.1291154,25.0530939 15.3301991,22.713123 17.4329635,20.7028148 C21.6632306,16.7100928 25.4792881,13.9428284 28.4808812,11.3150367 C30.000073,10.0141371 31.2934476,8.7601511 32.4358544,7.53722944 C33.5960221,6.32064745 34.4853361,5.11801272 35.2750621,4.05738653 C35.984864,2.98534893 36.6058614,2.06482936 36.9604452,1.40930785 C37.3626028,0.742374941 37.5776366,0.386719653 37.5776366,0.386719653 C37.5776366,0.386719653 37.769835,0.749982541 38.0869941,1.46953468 C38.4231826,2.19162269 38.7986989,3.27380375 39.1228355,4.73890067 C39.4044727,6.19005032 39.6353645,8.04884052 39.4913743,10.1675571 C39.3791,12.2888094 38.96045,14.7080262 38.1783359,17.1608431 C37.4070051,19.6206337 36.3286644,22.1488927 35.0790578,24.5991738 C33.8300855,27.0500888 32.4212651,29.4426789 31.0727049,31.7135474 C29.722876,33.983148 28.4428222,36.151314 27.4266446,38.1635241 C26.3920718,40.1858777 25.6911504,42.0034601 25.2350757,43.6986869 C24.7878814,45.3856721 24.557624,47.0549063 24.5582583,48.8249412 L24.5620642,49.340356 L24.543669,49.6021843 C24.5322513,49.6795282 24.5221022,49.7676496 24.5550867,49.9800284 L24.6825846,51.0450924 L24.7466508,51.5757224 L24.7745608,51.8413545 L24.7878814,51.9738535 C24.8532162,52.2940066 24.7022485,51.5757224 24.7187408,51.6575041 L24.7219124,51.6822288 L24.7288899,51.7316782 C24.860828,52.7891346 24.9838857,53.8345456 25.1684723,54.8267034 C25.5167129,56.8217964 25.9613699,58.6989717 26.5684123,60.4683726 C27.1982901,62.2111469 27.9042861,63.9469475 28.8399053,65.4824148 C29.736831,67.0533841 30.7802842,68.5083376 31.8535504,69.773101 C32.9109586,71.0720987 34.0032543,72.1637892 34.9617089,73.0779691 C36.8887672,74.8974534 38.2925131,75.9333549 38.2925131,75.9333549" id="Fill-4" fill="#E9C243"></path>
                <path d="M42.3464399,7.53659547 C42.3464399,7.53659547 42.6344203,7.66275484 43.1139647,7.99178353 C43.5687708,8.32968775 44.2988709,8.82988743 45.0480005,9.61600607 C46.5767071,11.1552771 48.4663406,13.7875066 49.6347545,17.4733887 C50.2094466,19.3036504 50.6471261,21.381793 50.7670122,23.5911668 C50.888167,24.70885 50.8050713,25.8271671 50.7892134,26.9993715 L50.7835045,27.2193579 L50.7816015,27.274513 L50.7809672,27.3017736 C50.7936536,27.2542261 50.66679,27.8152865 50.7194384,27.5889605 L50.7124609,27.6821536 L50.6832822,28.0561939 L50.6084327,28.8055424 C50.541195,29.3285649 50.5462695,29.745715 50.3673918,30.4500519 C50.2234016,31.0935281 50.0819487,31.7503175 49.9144887,32.406473 C49.7438572,33.0784776 49.5973297,33.5438092 49.4311384,34.1283264 C49.0930468,35.2720022 48.7467092,36.2876168 48.3730958,37.3368316 C47.6683685,39.2323919 46.9528577,41.1577486 46.2373469,43.0837392 C45.8916436,43.9801681 45.5687757,44.874061 45.2890414,45.7286481 C44.9699794,46.5971824 44.711812,47.4441618 44.4644279,48.2860695 C43.9518989,49.9711529 43.5199283,51.6232699 43.1932545,53.2867984 C42.9687059,54.1128569 42.8894161,54.947791 42.7384484,55.7770194 C42.6648676,56.1954374 42.591921,56.6087836 42.5196087,57.0170581 C42.4536396,57.4297704 42.4580799,57.8431167 42.3946481,58.255195 C42.2995003,59.0939329 42.2062556,59.909214 42.1161824,60.6978685 C42.0660713,61.504908 42.0406986,62.2922946 41.9747295,63.0676358 C41.7869713,64.6259258 41.8668954,66.0789774 41.7641359,67.4242546 C41.6524959,68.7771394 41.6740627,69.9651929 41.6321977,70.9757357 C41.6099966,71.9793049 41.511043,72.8193107 41.483133,73.3803712 C41.439365,73.9477714 41.3924255,74.2653887 41.3924255,74.2653887 C41.3924255,74.2653887 41.1450415,74.0790025 40.7263915,73.7017923 C40.3229652,73.3182425 39.6740579,72.7723972 38.9509353,72.0122712 C38.2087831,71.2597528 37.3245437,70.325286 36.5043705,69.127723 C35.6803913,67.9320619 34.6610422,66.5937583 33.8973232,64.9429091 C33.4843822,64.1295299 33.0968138,63.2609956 32.672455,62.3556913 C32.3026476,61.4320019 32.0248163,60.4379422 31.6848218,59.4159879 C31.3219919,58.3978375 31.1342337,57.3086828 30.9312519,56.1802222 C30.7124122,55.0536634 30.5252884,53.8897007 30.4980127,52.687066 C30.3318214,50.2900381 30.4536104,47.7579753 30.8824094,45.2829695 C31.094906,44.039127 31.3334096,42.7927485 31.6975082,41.6091328 C32.0051524,40.3836753 32.4149219,39.2361957 32.8291316,38.1013954 C33.6727746,35.8260891 34.6591392,33.7612597 35.6087134,31.874575 C36.0704969,30.9825839 36.5284746,30.0969325 36.982012,29.2226925 C37.1951429,28.8239275 37.4076394,28.4276983 37.618233,28.034639 C37.7812527,27.7132179 37.9683766,27.3981365 38.1510602,27.0792513 C38.3318408,26.8307363 38.5354569,26.2563626 38.727021,25.8151218 L39.0194416,25.1202943 L39.1729466,24.7773184 L39.2110057,24.6917329 C39.2680943,24.4501916 39.1450366,24.9966708 39.1602602,24.9339081 L39.1672377,24.9161571 L39.1811927,24.8806549 L39.2370127,24.7380125 C39.5389481,23.9797883 39.8383462,23.2190284 40.0965137,22.4760195 C40.6540793,20.982394 41.0632144,19.519199 41.4063805,18.1092572 C41.7730163,16.6942437 41.9696549,15.3476985 42.147264,14.0930785 C42.3204328,12.8371906 42.3692753,11.7055601 42.4149462,10.7279836 C42.4866242,8.77790217 42.3464399,7.53659547 42.3464399,7.53659547" id="Fill-5" fill="#E9C243"></path>
                <path d="M53.0765643,33.7511162 C53.0765643,33.7511162 53.7210315,34.2608254 54.597659,35.2935571 C55.4774582,36.321851 56.5500901,37.8725334 57.5085447,39.8638226 C58.4441638,41.8544779 59.2916127,44.2819362 59.7026508,46.9800982 C59.9874597,48.3215716 60.0153697,49.7416569 60.085779,51.1788593 C60.0692867,52.6224014 60.0007803,54.0957398 59.794627,55.5627387 C59.5110868,57.0278356 59.3144482,58.4922985 58.797479,59.8978026 C58.3325238,61.3058425 57.8466362,62.6707727 57.1311254,63.9241247 C56.4746062,65.1876203 55.7705131,66.3610925 54.9179897,67.3855826 C54.0819585,68.4100727 53.3353661,69.3648265 52.4079931,70.0976919 C51.522485,70.8489424 50.6889911,71.4854449 49.9290781,72.0033957 C49.0987557,72.4737989 48.3439172,72.8269183 47.715308,73.0906485 C46.4511121,73.6111351 45.6848559,73.7886457 45.6848559,73.7886457 C45.6848559,73.7886457 45.7438475,72.9346927 45.9239938,71.6490083 C46.0127983,71.0055322 46.151714,70.2739347 46.3039503,69.470065 C46.3908519,68.6180138 46.5126409,67.7082716 46.6686832,66.7731708 C46.8773738,65.8710363 46.9154329,64.811678 47.0816243,63.8005012 C47.2884119,62.8077095 47.356284,61.7122151 47.5110576,60.6344718 C47.715308,59.5801853 47.7844487,58.4403133 47.9703039,57.3302377 C48.1986584,56.2366452 48.239889,55.0517615 48.4688779,53.9264708 C48.6363378,52.7789911 48.7892085,51.6150284 49.0004364,50.4694506 C49.1311059,49.3067558 49.4013254,48.1706876 49.5827404,47.0339854 C49.781282,45.9029889 50.026763,44.7935473 50.2335507,43.7202417 C50.4879123,42.6463022 50.692797,41.6142045 50.9522331,40.6397978 C51.4305089,38.69669 51.9538213,36.986882 52.3572476,35.7531829 C52.5519833,35.1344315 52.7651141,34.6342318 52.8729482,34.2918898 C53.006155,33.9394043 53.0765643,33.7511162 53.0765643,33.7511162" id="Fill-6" fill="#E9C243"></path>
                <path d="M53.3150679,20.5246701 C53.3150679,20.5246701 53.4964829,20.7345131 53.8364774,21.1288403 C54.1599796,21.5409187 54.6706056,22.0715487 55.2808196,22.7714479 C56.539941,24.156665 58.3743888,25.9349415 60.6795007,28.0365409 C62.949725,30.1577933 65.8307977,32.6936599 68.3388913,36.4201158 C69.5770802,38.2712984 70.6725475,40.4039622 71.4349978,42.6862421 C71.8035366,43.8267481 72.1536802,44.9913449 72.3591993,46.1749606 C72.4886001,46.7658175 72.5609124,47.3566744 72.659866,47.9494332 L72.769603,48.8363526 L72.8197142,49.2801292 L72.8622135,49.8126612 L72.9009069,50.6025836 C72.9161305,50.8498306 72.9269139,51.1332137 72.9262796,51.4837973 C72.9357944,52.1431226 72.9338914,52.7967422 72.8945637,53.3964746 C72.8431839,54.625102 72.6446424,55.8524614 72.412482,57.058266 C71.9018559,59.4667053 71.0315715,61.7838533 69.8352477,63.7947955 C68.6776172,65.8291945 67.2059993,67.5421724 65.6969566,68.9521142 C64.16825,70.3506446 62.5818206,71.4480409 61.055017,72.281707 C57.991895,73.954111 55.2313428,74.6419648 53.3137993,74.9652878 C52.3604192,75.1459683 51.5852825,75.1795686 51.0727535,75.22775 C50.5519784,75.247403 50.2747814,75.2581804 50.2747814,75.2581804 C50.2747814,75.2581804 51.1323794,74.5912475 52.6344446,73.4247489 C54.0819585,72.2493747 56.0825976,70.5617555 58.0584984,68.385348 C60.029959,66.2070386 61.9189582,63.5107785 63.0575591,60.4544253 C63.6290797,58.9252977 64.0255285,57.3156564 64.2392937,55.6350109 C64.3420532,54.7931032 64.3959702,53.9372482 64.4023134,53.0649101 C64.4226116,52.6154277 64.4080223,52.2166627 64.3972389,51.8223355 C64.3991418,51.6454588 64.3858211,51.4026495 64.3617171,51.1237042 L64.3039941,50.3344157 L64.1752275,49.0525352 C64.1086241,48.6055887 64.0699307,48.1478648 63.9817605,47.7097938 C63.8345987,46.8209726 63.6487435,45.958778 63.4470304,45.1041909 C62.9909557,43.4146698 62.4302185,41.7847416 61.6969469,40.2061646 C60.2595821,37.0553504 58.2456222,33.9970953 56.7010578,31.0802148 C55.9284583,29.6284312 55.2713048,28.2273649 54.7797083,26.9492881 C54.2766941,25.6762831 53.9715871,24.5072486 53.7495758,23.5569326 C53.5123408,22.6167601 53.434954,21.819864 53.3765968,21.3202983 C53.3366347,20.8010796 53.3150679,20.5246701 53.3150679,20.5246701" id="Fill-7" fill="#E9C243"></path>
                <path d="M31.8535504,69.773101 C30.7802842,68.5083376 29.736831,67.0533841 28.8399053,65.4824148 C27.9042861,63.9469475 27.1982901,62.2111469 26.5684123,60.4683726 C25.9613699,58.6989717 25.5167129,56.8217964 25.1684723,54.8267034 C24.9838857,53.8345456 24.860828,52.7891346 24.7288899,51.7316782 L24.7219124,51.6822288 L24.7187408,51.6575041 C24.7022485,51.5757224 24.8532162,52.2940066 24.7878814,51.9738535 L24.7745608,51.8413545 L24.7466508,51.5757224 L24.6825846,51.0450924 L24.555721,49.9800284 C24.5221022,49.7676496 24.5322513,49.6795282 24.543669,49.6021843 L24.5620642,49.340356 L24.5582583,48.8249412 C24.557624,47.0549063 24.7878814,45.3856721 25.2350757,43.6986869 C25.5357425,42.5803697 25.9562953,41.4011917 26.4961,40.1529114 C21.3073782,36.1462422 16.1180221,32.139573 10.9293003,28.1329038 C8.92231794,30.9451799 7.10436236,34.3914226 5.9892312,38.2554493 C4.820183,42.2063294 4.4694051,46.471023 4.97559092,50.4567713 L5.21155724,52.0892354 L5.34983858,52.8975429 C5.39868107,53.1771222 5.44815788,53.4452901 5.49256015,53.5822269 C5.70569102,54.4000438 5.91755325,55.213423 6.12878117,56.0223645 C6.66477994,57.7144215 7.29021755,59.3665385 8.04695901,60.9590627 C9.56424782,64.1358696 11.5483947,67.0407048 13.8471634,69.393355 C16.1427605,71.7555147 18.7117487,73.5452025 21.20335,74.771928 C22.4485164,75.3932153 23.7012946,75.836358 24.8646339,76.2287834 C26.0628608,76.5673215 27.1894097,76.8278818 28.255064,76.9901773 C30.3965218,77.2951153 32.2442903,77.2754623 33.7425496,77.1036573 C35.2395403,76.9369241 36.3800441,76.6478353 37.1450317,76.387909 C37.9081164,76.1362242 38.2925131,75.9333549 38.2925131,75.9333549 C38.2925131,75.9333549 36.8887672,74.8974534 34.9617089,73.0779691 C34.0032543,72.1637892 32.9109586,71.0720987 31.8535504,69.773101" id="Fill-8" fill="#DB9D3E"></path>
                <path d="M32.3426096,44.6673879 C31.9512354,44.3656198 31.5604955,44.0632177 31.1697555,43.7614496 C31.066996,44.266721 30.969311,44.7738943 30.8824094,45.2829695 C30.4536104,47.7579753 30.3318214,50.2900381 30.4980127,52.687066 C30.5252884,53.8897007 30.7124122,55.0536634 30.9312519,56.1802222 C31.1342337,57.3086828 31.3219919,58.3978375 31.6848218,59.4159879 C32.0248163,60.4379422 32.3026476,61.4320019 32.672455,62.3550573 C33.0968138,63.2609956 33.4843822,64.1295299 33.8973232,64.9429091 C34.6616765,66.5937583 35.6803913,67.9320619 36.5043705,69.127723 C37.3245437,70.325286 38.2094174,71.2597528 38.9509353,72.0122712 C39.6740579,72.7723972 40.3229652,73.3182425 40.7263915,73.7017923 C41.1450415,74.0790025 41.3924255,74.2653887 41.3924255,74.2653887 C41.3924255,74.2653887 41.4399994,73.9477714 41.483133,73.3803712 C41.5116773,72.8193107 41.6099966,71.9793049 41.6321977,70.9757357 C41.6740627,69.9651929 41.6524959,68.7771394 41.7641359,67.4242546 C41.8668954,66.0789774 41.7869713,64.6259258 41.9747295,63.0676358 C42.0406986,62.2922946 42.0660713,61.504908 42.1161824,60.6978685 C42.2062556,59.909214 42.2995003,59.0939329 42.3946481,58.255195 C42.4580799,57.8431167 42.4536396,57.4297704 42.5196087,57.0170581 C42.591921,56.6087836 42.6648676,56.1954374 42.7384484,55.7770194 C42.8894161,54.947791 42.9687059,54.1128569 43.1932545,53.2867984 C43.3683263,52.3954413 43.5782856,51.5059861 43.8098117,50.613995 C39.9328596,48.8312808 36.1098246,46.850769 32.3426096,44.6673879" id="Fill-9" fill="#DB9D3E"></path>
                <path d="M48.6439497,52.7124246 C48.5855924,53.1181633 48.5272351,53.5239019 48.4688779,53.9264708 C48.239889,55.0517615 48.1986584,56.2366452 47.9703039,57.3302377 C47.785083,58.4403133 47.715308,59.5801853 47.5110576,60.6344718 C47.356284,61.7122151 47.2884119,62.8077095 47.0816243,63.8005012 C46.9154329,64.811678 46.8773738,65.8710363 46.6680489,66.7731708 C46.5126409,67.7082716 46.3908519,68.6180138 46.3039503,69.470065 C46.151714,70.2739347 46.0127983,71.0055322 45.9239938,71.6490083 C45.7438475,72.9346927 45.6848559,73.7886457 45.6848559,73.7886457 C45.6848559,73.7886457 46.4511121,73.6105011 47.715308,73.0906485 C48.3439172,72.8269183 49.0987557,72.4737989 49.9290781,72.0033957 C50.6889911,71.4854449 51.522485,70.8489424 52.4079931,70.0976919 C53.3353661,69.3648265 54.0819585,68.4100727 54.9179897,67.3855826 C55.7705131,66.3610925 56.4746062,65.1876203 57.1317597,63.9241247 C57.8466362,62.6707727 58.3325238,61.3058425 58.797479,59.8978026 C59.1850473,58.844784 59.391835,57.7587991 59.5910109,56.6645727 C55.8954738,55.517727 52.2468763,54.1978085 48.6439497,52.7124246" id="Fill-10" fill="#DB9D3E"></path>
                <path d="M63.8257183,57.9008076 C63.6201992,58.7737797 63.3671063,59.6270988 63.0575591,60.4544253 C61.9189582,63.5107785 60.029959,66.2070386 58.0584984,68.385348 C56.0825976,70.5617555 54.0819585,72.2493747 52.6344446,73.4247489 C51.1330138,74.5912475 50.2747814,75.2581804 50.2747814,75.2581804 C50.2747814,75.2581804 50.5519784,75.247403 51.0727535,75.22775 C51.5852825,75.1795686 52.3604192,75.1459683 53.3137993,74.9652878 C55.2313428,74.6419648 57.991895,73.954111 61.055017,72.281707 C62.5818206,71.4480409 64.16825,70.3506446 65.6969566,68.9521142 C67.2059993,67.5421724 68.6776172,65.8291945 69.8352477,63.7947955 C70.5729596,62.5547568 71.1704872,61.1904606 71.6519346,59.7672055 C69.0220519,59.22453 66.4124674,58.6064125 63.8257183,57.9008076" id="Fill-11" fill="#DB9D3E"></path>
                <path d="M48.9300271,114.049331 C48.0115345,113.003287 45.2319528,109.084739 44.2963336,99.1447757 C43.1685161,87.1697797 49.2294252,79.56218 57.6874223,79.8436612 C57.6874223,79.8436612 47.232592,77.1309179 39.7856978,84.9153943 C35.15137,78.8927112 30.1998832,78.857843 30.1998832,78.857843 C30.1998832,78.857843 34.9927905,83.2956095 36.331836,93.8612976 C38.0635243,107.522011 32.8786084,113.12691 32.8786084,113.12691 C33.0390909,113.075559 33.1875213,112.998215 33.3467351,112.947497 C40.886874,110.538424 49.2294252,114.359975 49.2294252,114.359975 L48.9300271,114.049331" id="Fill-12" fill="#483E31"></path>
            </g>
            <text id="いちょう心理オフィス" font-family="FolkPro-Medium, A-OTF Folk Pro" font-size="72" font-weight="500" letter-spacing="-1" fill="#638B3E">
                <tspan x="114" y="91">い</tspan>
                <tspan x="185" y="91" letter-spacing="-9">ち</tspan>
                <tspan x="248" y="91" letter-spacing="-10">ょ</tspan>
                <tspan x="310" y="91">う</tspan>
                <tspan x="381" y="91" letter-spacing="8">心</tspan>
                <tspan x="461" y="91" letter-spacing="5">理</tspan>
                <tspan x="538" y="91" letter-spacing="-5">オ</tspan>
                <tspan x="605" y="91" letter-spacing="-14">フ</tspan>
                <tspan x="663" y="91" letter-spacing="-13">ィ</tspan>
                <tspan x="722" y="91" letter-spacing="3">ス</tspan>
            </text>
        </g>
    </g>
</svg>